<svg xmlns="http://www.w3.org/2000/svg" height="34" viewBox="-2 3 19.5 12" version="1.1" width="34" fill="currentColor">
    <path d="m 3.5 4.2 c 0 0 -0.5 0 -1 -1 c -0.144 -0.36 -0.648 -1.836 0.144 -3.816 c 0 0 1.206 -0.378 3.96 1.476 m 2.76 0 c 2.754 -1.872 3.96 -1.476 3.96 -1.476 c 0.792 1.98 0.288 3.456 0.144 3.816 c -0.5 1 -1 1 -1 1 z"></path>
    <path d="m 4 9 c -3.015 0.555 -3.795 -0.735 -4.035 -1.41 c -0.135 -0.345 -0.72 -1.41 -1.23 -1.695 c -0.42 -0.225 -1.02 -0.78 -0.015 -0.795 c 0.945 -0.015 1.62 0.87 1.845 1.23 c 1.08 1.815 2.805 1.305 3.495 0.99 z"></path>
    <path d="M8 16a2 2 0 001.985-1.75c.017-.137-.097-.25-.235-.25h-3.5c-.138 0-.252.113-.235.25A2 2 0 008 16z"></path>
    <path fill-rule="evenodd" d="M8 1.5A3.5 3.5 0 004.5 5v2.947c0 .346-.102.683-.294.97l-1.703 2.556a.018.018 0 00-.003.01l.001.006c0 .002.002.004.004.006a.017.017 0 00.006.004l.007.001h10.964l.007-.001a.016.016 0 00.006-.004.016.016 0 00.004-.006l.001-.007a.017.017 0 00-.003-.01l-1.703-2.554a1.75 1.75 0 01-.294-.97V5A3.5 3.5 0 008 1.5zM3 5a5 5 0 0110 0v2.947c0 .05.015.098.042.139l1.703 2.555A1.518 1.518 0 0113.482 13H2.518a1.518 1.518 0 01-1.263-2.36l1.703-2.554A.25.25 0 003 7.947V5z"></path>
</svg> 